<?xml version="1.0" encoding="UTF-8" standalone="no"?>
<!DOCTYPE svg PUBLIC "-//W3C//DTD SVG 1.1//EN"
 "http://www.w3.org/Graphics/SVG/1.1/DTD/svg11.dtd">
<!-- Generated by graphviz version 2.38.0 (20140413.2041)
 -->
<!-- Title: snakemake_dag Pages: 1 -->
<svg width="134pt" height="188pt"
 viewBox="0.00 0.00 134.00 188.00" xmlns="http://www.w3.org/2000/svg" xmlns:xlink="http://www.w3.org/1999/xlink">
<g id="graph0" class="graph" transform="scale(1 1) rotate(0) translate(4 184)">
<title>snakemake_dag</title>
<polygon fill="white" stroke="none" points="-4,4 -4,-184 130,-184 130,4 -4,4"/>
<!-- 0 -->
<g id="node1" class="node"><title>0</title>
<path fill="none" stroke="#d85656" stroke-width="2" d="M78,-36C78,-36 48,-36 48,-36 42,-36 36,-30 36,-24 36,-24 36,-12 36,-12 36,-6 42,-0 48,-0 48,-0 78,-0 78,-0 84,-0 90,-6 90,-12 90,-12 90,-24 90,-24 90,-30 84,-36 78,-36"/>
<text text-anchor="middle" x="63" y="-15.5" font-family="sans" font-size="10.00">three</text>
</g>
<!-- 1 -->
<g id="node2" class="node"><title>1</title>
<path fill="none" stroke="#56d8d8" stroke-width="2" d="M42,-108C42,-108 12,-108 12,-108 6,-108 0,-102 0,-96 0,-96 0,-84 0,-84 0,-78 6,-72 12,-72 12,-72 42,-72 42,-72 48,-72 54,-78 54,-84 54,-84 54,-96 54,-96 54,-102 48,-108 42,-108"/>
<text text-anchor="middle" x="27" y="-87.5" font-family="sans" font-size="10.00">one</text>
</g>
<!-- 1&#45;&gt;0 -->
<g id="edge2" class="edge"><title>1&#45;&gt;0</title>
<path fill="none" stroke="grey" stroke-width="2" d="M35.8989,-71.6966C39.9968,-63.7284 44.9488,-54.0995 49.4927,-45.2641"/>
<polygon fill="grey" stroke="grey" stroke-width="2" points="52.7425,-46.598 54.2035,-36.1043 46.5174,-43.3965 52.7425,-46.598"/>
</g>
<!-- 2 -->
<g id="node3" class="node"><title>2</title>
<path fill="none" stroke="#d6d856" stroke-width="2" d="M114,-108C114,-108 84,-108 84,-108 78,-108 72,-102 72,-96 72,-96 72,-84 72,-84 72,-78 78,-72 84,-72 84,-72 114,-72 114,-72 120,-72 126,-78 126,-84 126,-84 126,-96 126,-96 126,-102 120,-108 114,-108"/>
<text text-anchor="middle" x="99" y="-87.5" font-family="sans" font-size="10.00">two</text>
</g>
<!-- 2&#45;&gt;0 -->
<g id="edge1" class="edge"><title>2&#45;&gt;0</title>
<path fill="none" stroke="grey" stroke-width="2" d="M90.1011,-71.6966C86.0032,-63.7284 81.0512,-54.0995 76.5073,-45.2641"/>
<polygon fill="grey" stroke="grey" stroke-width="2" points="79.4826,-43.3965 71.7965,-36.1043 73.2575,-46.598 79.4826,-43.3965"/>
</g>
<!-- 3 -->
<g id="node4" class="node"><title>3</title>
<path fill="none" stroke="#59d856" stroke-width="2" d="M78,-180C78,-180 48,-180 48,-180 42,-180 36,-174 36,-168 36,-168 36,-156 36,-156 36,-150 42,-144 48,-144 48,-144 78,-144 78,-144 84,-144 90,-150 90,-156 90,-156 90,-168 90,-168 90,-174 84,-180 78,-180"/>
<text text-anchor="middle" x="63" y="-159.5" font-family="sans" font-size="10.00">zero</text>
</g>
<!-- 3&#45;&gt;1 -->
<g id="edge3" class="edge"><title>3&#45;&gt;1</title>
<path fill="none" stroke="grey" stroke-width="2" d="M54.1011,-143.697C50.0032,-135.728 45.0512,-126.1 40.5073,-117.264"/>
<polygon fill="grey" stroke="grey" stroke-width="2" points="43.4826,-115.396 35.7965,-108.104 37.2575,-118.598 43.4826,-115.396"/>
</g>
<!-- 3&#45;&gt;2 -->
<g id="edge4" class="edge"><title>3&#45;&gt;2</title>
<path fill="none" stroke="grey" stroke-width="2" d="M71.8989,-143.697C75.9968,-135.728 80.9488,-126.1 85.4927,-117.264"/>
<polygon fill="grey" stroke="grey" stroke-width="2" points="88.7425,-118.598 90.2035,-108.104 82.5174,-115.396 88.7425,-118.598"/>
</g>
</g>
</svg>
